<mxfile host="app.diagrams.net" modified="2023-11-06T07:15:45.251Z" agent="Mozilla/5.0 (Windows NT 10.0; Win64; x64) AppleWebKit/537.36 (KHTML, like Gecko) Chrome/118.0.0.0 Safari/537.36" etag="j-_TFdo9yJXsz1QHQnVW" version="22.0.8" type="github">
  <diagram name="第 1 页" id="qFL0AbkpCfW2eDXZZ8hV">
    <mxGraphModel dx="1562" dy="854" grid="1" gridSize="10" guides="1" tooltips="1" connect="1" arrows="1" fold="1" page="1" pageScale="1" pageWidth="827" pageHeight="1169" math="0" shadow="0">
      <root>
        <mxCell id="0" />
        <mxCell id="1" parent="0" />
        <mxCell id="rOMdXhNkBVezqgkgicsf-2" value="总体需求用例图" style="shape=umlFrame;whiteSpace=wrap;html=1;pointerEvents=0;fontSize=17;width=133;height=30;" vertex="1" parent="1">
          <mxGeometry x="257" y="290" width="743" height="530" as="geometry" />
        </mxCell>
        <mxCell id="rOMdXhNkBVezqgkgicsf-3" value="数据支撑服务" style="shape=folder;fontStyle=1;spacingTop=10;tabWidth=40;tabHeight=14;tabPosition=left;html=1;whiteSpace=wrap;verticalAlign=top;fontSize=17;" vertex="1" parent="1">
          <mxGeometry x="290" y="350" width="170" height="450" as="geometry" />
        </mxCell>
        <mxCell id="rOMdXhNkBVezqgkgicsf-4" value="新地震协议解析" style="ellipse;whiteSpace=wrap;html=1;fontSize=17;" vertex="1" parent="1">
          <mxGeometry x="305" y="390" width="140" height="70" as="geometry" />
        </mxCell>
        <mxCell id="rOMdXhNkBVezqgkgicsf-5" value="数据存储" style="ellipse;whiteSpace=wrap;html=1;fontSize=17;" vertex="1" parent="1">
          <mxGeometry x="305" y="470" width="140" height="70" as="geometry" />
        </mxCell>
        <mxCell id="rOMdXhNkBVezqgkgicsf-6" value="事件存储和管理" style="ellipse;whiteSpace=wrap;html=1;fontSize=17;" vertex="1" parent="1">
          <mxGeometry x="305" y="550" width="140" height="70" as="geometry" />
        </mxCell>
        <mxCell id="rOMdXhNkBVezqgkgicsf-7" value="手动事件检测" style="ellipse;whiteSpace=wrap;html=1;fontSize=17;" vertex="1" parent="1">
          <mxGeometry x="305" y="630" width="140" height="70" as="geometry" />
        </mxCell>
        <mxCell id="rOMdXhNkBVezqgkgicsf-8" value="受限时间段管理" style="ellipse;whiteSpace=wrap;html=1;fontSize=17;" vertex="1" parent="1">
          <mxGeometry x="305" y="710" width="140" height="70" as="geometry" />
        </mxCell>
        <mxCell id="rOMdXhNkBVezqgkgicsf-9" value="数据获取服务" style="shape=folder;fontStyle=1;spacingTop=10;tabWidth=40;tabHeight=14;tabPosition=left;html=1;whiteSpace=wrap;verticalAlign=top;fontSize=17;" vertex="1" parent="1">
          <mxGeometry x="550" y="380" width="170" height="380" as="geometry" />
        </mxCell>
        <mxCell id="rOMdXhNkBVezqgkgicsf-12" value="波形数据获取" style="ellipse;whiteSpace=wrap;html=1;fontSize=17;" vertex="1" parent="1">
          <mxGeometry x="565" y="440" width="140" height="70" as="geometry" />
        </mxCell>
        <mxCell id="rOMdXhNkBVezqgkgicsf-13" value="站点信息获取" style="ellipse;whiteSpace=wrap;html=1;fontSize=17;" vertex="1" parent="1">
          <mxGeometry x="565" y="550" width="140" height="70" as="geometry" />
        </mxCell>
        <mxCell id="rOMdXhNkBVezqgkgicsf-14" value="事件信息获取" style="ellipse;whiteSpace=wrap;html=1;fontSize=17;" vertex="1" parent="1">
          <mxGeometry x="565" y="660" width="140" height="70" as="geometry" />
        </mxCell>
        <mxCell id="rOMdXhNkBVezqgkgicsf-15" value="系统支撑服务" style="shape=folder;fontStyle=1;spacingTop=10;tabWidth=40;tabHeight=14;tabPosition=left;html=1;whiteSpace=wrap;verticalAlign=top;fontSize=17;" vertex="1" parent="1">
          <mxGeometry x="800" y="410" width="170" height="320" as="geometry" />
        </mxCell>
        <mxCell id="rOMdXhNkBVezqgkgicsf-16" value="日志管理" style="ellipse;whiteSpace=wrap;html=1;fontSize=17;" vertex="1" parent="1">
          <mxGeometry x="815" y="480" width="140" height="70" as="geometry" />
        </mxCell>
        <mxCell id="rOMdXhNkBVezqgkgicsf-17" value="用户管理" style="ellipse;whiteSpace=wrap;html=1;fontSize=17;" vertex="1" parent="1">
          <mxGeometry x="815" y="610" width="140" height="70" as="geometry" />
        </mxCell>
        <mxCell id="rOMdXhNkBVezqgkgicsf-19" value="" style="endArrow=open;endSize=12;dashed=1;html=1;rounded=0;exitX=0;exitY=0;exitDx=0;exitDy=197;exitPerimeter=0;entryX=0.998;entryY=0.501;entryDx=0;entryDy=0;entryPerimeter=0;fontSize=17;" edge="1" parent="1" source="rOMdXhNkBVezqgkgicsf-9" target="rOMdXhNkBVezqgkgicsf-3">
          <mxGeometry width="160" relative="1" as="geometry">
            <mxPoint x="120" y="570" as="sourcePoint" />
            <mxPoint x="280" y="570" as="targetPoint" />
          </mxGeometry>
        </mxCell>
        <mxCell id="rOMdXhNkBVezqgkgicsf-20" value="" style="endArrow=open;endSize=12;dashed=1;html=1;rounded=0;exitX=0;exitY=0;exitDx=170;exitDy=197;exitPerimeter=0;entryX=0;entryY=0;entryDx=0;entryDy=167;entryPerimeter=0;fontSize=17;" edge="1" parent="1" source="rOMdXhNkBVezqgkgicsf-9" target="rOMdXhNkBVezqgkgicsf-15">
          <mxGeometry width="160" relative="1" as="geometry">
            <mxPoint x="560" y="587" as="sourcePoint" />
            <mxPoint x="470" y="585" as="targetPoint" />
          </mxGeometry>
        </mxCell>
      </root>
    </mxGraphModel>
  </diagram>
</mxfile>
